#!OML:ASF E:\emotionWalksFemale\Project 1\Capture day 1\Session 1\Female1.ASF
:FULLY-SPECIFIED
:DEGREES
1211
root 11.1545 15.3456 -35.9129 342.725 79.1429 -10.4746
lowerback 4.49985 0.0636035 4.44068
upperback -5.77248 0.891631 3.64882
thorax -8.6285 0.349967 1.25801
lowerneck -13.2266 -6.0771 -7.99958
upperneck 19.0765 -9.33621 13.3441
head 9.20119 -3.52887 4.79148
rclavicle 5.1684e-015 9.54166e-015
rhumerus 20.1979 12.8635 -42.7672
rradius 27.6778
rwrist 20.4514
rhand -6.38794 -48.1776
rfingers 7.12502
rthumb -160.541 -257.224
lclavicle 5.1684e-015 9.54166e-015
lhumerus 20.7527 -12.2307 58.8062
lradius 27.7074
lwrist -34.1164
lhand -5.33171 -42.2416
lfingers 7.12502
lthumb 20.4747 -13.3012
rfemur 23.8945 11.1459 31.1414
rtibia 15.3459
rfoot -7.95335 -19.8363
rtoes 5.24654
lfemur -20.3416 -31.9903 -8.14455
ltibia 23.3518
lfoot -32.2923 28.8962
ltoes 4.02193
1212
root 11.2812 15.3468 -35.9292 343.377 78.6439 -9.85852
lowerback 4.45104 0.178632 4.34745
upperback -5.77366 1.01809 3.50375
thorax -8.59629 0.410327 1.14133
lowerneck -13.1397 -6.109 -7.47996
upperneck 18.823 -9.42216 13.1138
head 9.07058 -3.56556 4.60504
rclavicle 1.98785e-015 9.54166e-015
rhumerus 20.7208 11.437 -44.5916
rradius 26.5417
rwrist 22.5965
rhand -6.48083 -47.9175
rfingers 7.12502
rthumb -160.63 -256.973
lclavicle 1.98785e-015 9.54166e-015
lhumerus 20.734 -12.4745 58.5856
lradius 27.7287
lwrist -33.9496
lhand -5.31062 -42.1456
lfingers 7.12502
lthumb 20.4949 -13.2073
rfemur 23.9703 11.579 31.0017
rtibia 15.8861
rfoot -8.16375 -19.4718
rtoes 10.9357
lfemur -19.746 -31.3208 -8.59796
ltibia 23.2165
lfoot -32.0956 28.3829
ltoes 3.34925
1213
root 11.4049 15.3379 -35.9696 343.147 78.4199 -10.0752
lowerback 4.5459 0.20157 4.54737
upperback -5.78731 1.06547 3.41753
thorax -8.66287 0.415675 0.932984
lowerneck -13.2346 -6.16064 -7.36828
upperneck 18.9443 -9.49906 12.9709
head 9.12543 -3.60021 4.52584
rclavicle 2.18663e-014 3.10104e-014
rhumerus 20.5477 11.6008 -44.4714
rradius 26.7358
rwrist 22.4111
rhand -6.38458 -47.8924
rfingers 7.12502
rthumb -160.537 -256.938
lclavicle 2.18663e-014 3.10104e-014
lhumerus 20.714 -12.5262 58.7014
lradius 27.6531
lwrist -33.9452
lhand -4.9894 -42.3467
lfingers 7.12502
lthumb 20.8036 -13.442
rfemur 23.998 11.2444 30.6103
rtibia 16.4652
rfoot -7.78018 -18.7669
rtoes 10.2472
lfemur -19.2796 -30.9539 -9.03385
ltibia 23.0741
lfoot -31.1092 28.2254
ltoes 0.881666
1214
root 11.5344 15.3326 -35.9897 343.117 77.8562 -10.3713
lowerback 4.19268 0.326687 4.41866
upperback -5.82118 1.21032 3.51463
thorax -8.49314 0.50244 1.09199
lowerneck -13.5232 -6.22356 -7.50161
upperneck 19.4004 -9.55817 12.7888
head 9.33952 -3.63122 4.47999
rclavicle -9.14409e-015 1.82882e-014
rhumerus 20.6352 12.3418 -43.861
rradius 26.975
rwrist 21.5627
rhand -6.33096 -47.9589
rfingers 7.12502
rthumb -160.486 -257
lclavicle -9.14409e-015 1.82882e-014
lhumerus 20.6451 -12.719 58.6209
lradius 27.6713
lwrist -33.6185
lhand -4.78334 -42.5554
lfingers 7.12502
lthumb 21.0016 -13.6725
rfemur 23.802 11.0567 30.3609
rtibia 17.1009
rfoot -6.69381 -18.2006
rtoes 2.70227
lfemur -18.9186 -30.66 -9.10069
ltibia 22.9109
lfoot -28.3526 29.2518
ltoes -9.74594
1215
root 11.6651 15.3263 -36.0194 342.79 77.6114 -10.5861
lowerback 4.17796 0.291744 4.3108
upperback -5.7239 1.15296 3.60577
thorax -8.38249 0.485981 1.25396
lowerneck -13.6263 -6.27265 -7.33699
upperneck 19.4098 -9.56713 12.3357
head 9.3286 -3.66969 4.28754
rclavicle -3.57812e-015 1.74931e-014
rhumerus 20.9681 13.6586 -42.8197
rradius 27.3715
rwrist 20.1391
rhand -6.1756 -48.2581
rfingers 7.12502
rthumb -160.336 -257.284
lclavicle -3.57812e-015 1.74931e-014
lhumerus 20.5607 -12.2877 58.9294
lradius 27.5368
lwrist -33.9385
lhand -4.89659 -42.6627
lfingers 7.12502
lthumb 20.8928 -13.7677
rfemur 23.9597 10.5067 29.9416
rtibia 17.6813
rfoot -5.99251 -17.4334
rtoes -1.40652
lfemur -18.2064 -30.6088 -9.53314
ltibia 22.8045
lfoot -25.8776 29.7987
ltoes -18.6778
1216
root 11.7992 15.3152 -36.0462 342.665 77.3355 -10.649
lowerback 4.12441 0.27178 4.21057
upperback -5.66276 1.11174 3.64458
thorax -8.28657 0.474296 1.35491
lowerneck -13.0656 -5.92867 -4.4809
upperneck 18.3055 -9.10744 9.92916
head 8.53335 -3.55665 3.03618
rclavicle -2.50469e-014 -3.97569e-015
rhumerus 21.2219 13.8528 -42.7298
rradius 27.3985
rwrist 20.1658
rhand -5.87174 -48.2966
rfingers 7.12502
rthumb -160.044 -257.292
lclavicle -2.50469e-014 -3.97569e-015
lhumerus 20.4885 -11.7476 59.2713
lradius 27.4033
lwrist -34.4709
lhand -4.933 -42.7894
lfingers 7.12502
lthumb 20.8578 -13.8906
rfemur 24.1491 10.4454 29.7017
rtibia 18.2184
rfoot -5.68256 -17.0124
rtoes -0.529342
lfemur -17.5429 -30.5323 -9.99576
ltibia 22.7265
lfoot -27.6549 28.3091
ltoes -9.7679
